<?xml version="1.0" encoding="UTF-8"?>
<svg version="1.1" xmlns="http://www.w3.org/2000/svg" width="169" height="179">
<path d="M0 0 C4.90624714 2.27790046 7.5167579 5.21745967 10 10 C11.4287113 15.81009261 10.90550895 19.40151132 8.69140625 24.921875 C7.68267391 27.95377108 7.71052467 30.30525921 8.9375 33.25 C10.32432067 36.8394182 10.56685226 40.17581271 11 44 C13.56796248 42.44594515 16.12915145 40.88224389 18.6875 39.3125 C19.40873047 38.87744141 20.12996094 38.44238281 20.87304688 37.99414062 C26.78617452 34.34906194 31.94321412 30.41925034 35 24 C36.1322633 19.3840567 36.1322633 19.3840567 35 15 C34.34 15 33.68 15 33 15 C32.87044922 15.97839844 32.87044922 15.97839844 32.73828125 16.9765625 C31.64990969 23.7464333 29.9591025 27.99216927 24.29296875 32.296875 C23.10914172 33.13251761 21.91646552 33.95577926 20.71484375 34.765625 C18.17928788 36.59076317 16.13998514 38.73031879 14 41 C13.08712325 37.89621905 12.86571351 36.3594746 14.015625 33.28125 C15.18331494 29.38895019 14.86379333 26.64304687 14.375 22.625 C13.88871168 17.37372599 13.74939097 13.23115482 16.62109375 8.6484375 C19.86288354 4.77298342 23.16893508 1.61035497 28 0 C36.73228728 -0.60624691 42.80546164 -0.51170654 49.6875 5.25 C52.53270254 8.6334841 55 12.41397102 55 17 C55.98742187 16.41089844 56.97484375 15.82179688 57.9921875 15.21484375 C59.28621126 14.45530807 60.58049567 13.69621634 61.875 12.9375 C62.52597656 12.54755859 63.17695313 12.15761719 63.84765625 11.75585938 C65.53065725 10.77555467 67.26296199 9.88101568 69 9 C69.99 9.495 69.99 9.495 71 10 C70.76700195 10.53890869 70.53400391 11.07781738 70.29394531 11.63305664 C69.24855284 14.09776229 68.24934235 16.5787865 67.25 19.0625 C66.88261719 19.91005859 66.51523438 20.75761719 66.13671875 21.63085938 C64.17859147 26.22460197 64.17859147 26.22460197 64.68066406 30.99194336 C65.72993006 32.69781525 66.86335398 34.35106281 68 36 C68.390625 38.87109375 68.390625 38.87109375 68.25 41.4375 C68.21390625 42.30246094 68.1778125 43.16742188 68.140625 44.05859375 C68.09421875 44.69925781 68.0478125 45.33992188 68 46 C68.70125 46.061875 69.4025 46.12375 70.125 46.1875 C74.45282866 47.41058201 77.6894589 50.00569832 80.16796875 53.77734375 C81.25943361 56.69304096 81.19247227 59.14627568 81.125 62.25 C81.10695312 63.32765625 81.08890625 64.4053125 81.0703125 65.515625 C81.04710937 66.33546875 81.02390625 67.1553125 81 68 C78.65502726 66.83256745 76.32349788 65.64765515 74 64.4375 C66.2341393 60.71635841 58.00499398 61.21565427 50 64 C49.505 65.98 49.505 65.98 49 68 C49.56847656 67.7834375 50.13695313 67.566875 50.72265625 67.34375 C59.20269515 64.28583948 65.71881588 64.38185553 74 68 C79.0364729 71.13380536 82.02286273 75.42381052 83.57421875 81.1015625 C84.56415824 87.12635554 83.6425405 92.50280873 81 98 C79.26387214 100.27120939 77.45468406 102.29649345 75.42578125 104.30859375 C73.67774185 106.01359986 73.67774185 106.01359986 74 109 C76.24071094 107.99554337 77.87754985 107.12245015 79.625 105.375 C80.07875 104.92125 80.5325 104.4675 81 104 C81.66 104 82.32 104 83 104 C85.99283509 112.97850526 84.55761996 123.03160356 80.546875 131.40234375 C77.05773555 137.26163096 72.72605463 141.61236216 66.1171875 143.6953125 C61.09654896 144.41783982 56.74318898 143.0204033 52.4375 140.5 C50.12359652 136.47582004 50.41369784 132.53506887 51 128 C52.32488726 124.24723882 54.1163193 120.81258238 56 117.3125 C60.52729599 109.15104433 60.52729599 109.15104433 61 100 C59.39116357 97.11518985 58.00632289 94.77651357 55.375 92.74609375 C53.25252291 90.05078904 53.71273442 87.6712744 53.8125 84.3125 C53.85310547 82.54326172 53.85310547 82.54326172 53.89453125 80.73828125 C53.92933594 79.83464844 53.96414062 78.93101563 54 78 C52.515 78.495 52.515 78.495 51 79 C51.020625 80.2375 51.04125 81.475 51.0625 82.75 C51.11148599 85.68915923 50.80928705 88.17068148 50 91 C48.1746875 91.4021875 48.1746875 91.4021875 46.3125 91.8125 C42.78555831 92.70206611 39.90774202 93.72832655 37 96 C37 96.99 37 97.98 37 99 C37.49628906 98.71125 37.99257812 98.4225 38.50390625 98.125 C43.14359521 95.5894584 46.58942295 94.18330912 52 95 C54.9375 96.4375 54.9375 96.4375 57 99 C58.1993632 103.96321847 57.35217038 108.00515447 54.8125 112.375 C51.87719843 116.55759685 48.81996055 118.39334648 44 120 C42.43881572 120.06740865 40.8749748 120.08514456 39.3125 120.0625 C38.50425781 120.05347656 37.69601563 120.04445313 36.86328125 120.03515625 C36.24839844 120.02355469 35.63351563 120.01195312 35 120 C35 120.99 35 121.98 35 123 C39.29 123 43.58 123 48 123 C47.82210937 124.41152344 47.82210937 124.41152344 47.640625 125.8515625 C46.46165702 133.53532827 46.46165702 133.53532827 48.625 140.6875 C52.07582722 144.04751598 55.23407528 146.11742135 60 147 C58.61198929 150.35435922 57.11371 152.11290303 54 154 C53.01 154 52.02 154 51 154 C50.79375 154.721875 50.5875 155.44375 50.375 156.1875 C48.51865956 159.98456 46.40532197 161.4981308 43 164 C37.62984366 165.79005211 31.23765234 166.00459071 25.796875 164.31640625 C20.59922673 161.59329052 17.81675976 157.45027929 16 152 C15.72316535 147.10925453 16.43330589 143.59563605 18 139 C17.67 138.01 17.34 137.02 17 136 C16.96045766 133.66700175 16.95598268 131.33291811 17 129 C22.55480463 132.41275579 27.39899217 135.48595676 31 141 C31.85365514 144.80861522 32 148.09751282 32 152 C32.66 152 33.32 152 34 152 C35.75510763 148.48978473 35.53645466 144.83091743 35 141 C32.65445937 135.42791079 27.86782551 132.19465503 23.15234375 128.6953125 C19.1592038 125.55008067 15.89038368 121.76376687 14 117 C13.8046875 113.984375 13.8046875 113.984375 13.875 110.75 C13.89304687 109.67234375 13.91109375 108.5946875 13.9296875 107.484375 C13.95289062 106.66453125 13.97609375 105.8446875 14 105 C14.66 104.67 15.32 104.34 16 104 C16.53625 104.78375 17.0725 105.5675 17.625 106.375 C20.30242842 109.33426299 22.18433025 110.04608256 26 111 C25.27486327 107.85803765 25.27486327 107.85803765 22.6875 106.3125 C19.2392545 103.34540504 17.78828607 100.1160551 16 96 C12.54283145 99.75748824 11.45972392 102.3208329 10.9375 107.375 C10.2939021 112.48319595 9.33771754 116.4308248 7 121 C4.69 120.34 2.38 119.68 0 119 C-0.66 119.99 -1.32 120.98 -2 122 C-0.700625 122.2784375 -0.700625 122.2784375 0.625 122.5625 C6.25655109 124.96112361 9.49849067 129.29633961 11.875 134.875 C13.93705233 141.23299468 13.82922831 147.81211016 11.25390625 154.0078125 C8.21328764 158.83870188 3.42100365 163.19299878 -2 165 C-10.66768536 165.84035731 -16.87311881 165.15639983 -24 160 C-24.68707555 162.49064888 -25 164.37886292 -25 167 C-25.66 167 -26.32 167 -27 167 C-27.08636719 166.31292969 -27.17273437 165.62585938 -27.26171875 164.91796875 C-27.99150937 159.42438533 -27.99150937 159.42438533 -31 155 C-33.6761738 154.10794207 -36.03938537 153.67597767 -38.8125 153.25 C-44.64973485 152.18710052 -48.27064776 149.57002157 -52 145 C-54.60140328 140.45411347 -55.39335378 136.24471702 -55 131 C-52.51238586 129.75619293 -51.29388098 130.07421288 -48.5625 130.4375 C-45.98390012 130.77310031 -43.60834928 131 -41 131 C-41.33 130.01 -41.66 129.02 -42 128 C-42.72445312 127.90203125 -43.44890625 127.8040625 -44.1953125 127.703125 C-51.43773708 126.58296333 -55.85032187 124.89429882 -61.3125 119.875 C-64.37919651 114.65025779 -64.56095361 109.16902061 -63.0625 103.375 C-62.5365625 102.199375 -62.5365625 102.199375 -62 101 C-61.34 101 -60.68 101 -60 101 C-58.95502642 102.16965793 -57.963904 103.38768092 -57 104.625 C-50.33017722 112.42483408 -41.58015823 115.90375114 -32 119 C-32 118.01 -32 117.02 -32 116 C-32.89460938 115.67128906 -33.78921875 115.34257813 -34.7109375 115.00390625 C-46.12985709 110.51181528 -55.7416222 103.93101799 -62 93 C-65.605575 83.93633042 -64.95796157 74.79813992 -61.16796875 65.92578125 C-60 64 -60 64 -57 62 C-56.82984375 62.59167969 -56.6596875 63.18335938 -56.484375 63.79296875 C-54.77264365 69.37430555 -53.33593967 74.05513399 -48.0234375 77.15234375 C-43.02232254 79.56697142 -38.5205999 80.59850183 -33 81 C-32.63890458 82.64432706 -32.28629924 84.2905208 -31.9375 85.9375 C-31.74027344 86.85402344 -31.54304688 87.77054687 -31.33984375 88.71484375 C-31.22769531 89.46894531 -31.11554687 90.22304687 -31 91 C-32.62021265 92.62021265 -34.39367934 92.17064712 -36.625 92.1875 C-41.13280187 92.15511637 -44.75692149 91.47585339 -49 90 C-49 90.99 -49 91.98 -49 93 C-42.17501809 95.6726146 -37.02466375 96.01632975 -29.78515625 95.12890625 C-25.76786309 94.94297263 -23.45367966 96.03768201 -20 98 C-19.505 96.515 -19.505 96.515 -19 95 C-19.94875 94.38125 -20.8975 93.7625 -21.875 93.125 C-26.72564439 89.82656182 -26.72564439 89.82656182 -27.61328125 87.15234375 C-28.63868658 81.44528987 -28.48678459 76.28441725 -26 71 C-26 70.01 -26 69.02 -26 68 C-29.08759559 68.64067976 -29.08759559 68.64067976 -29.94921875 70.84765625 C-30.19285156 71.57855469 -30.43648437 72.30945313 -30.6875 73.0625 C-31.06455078 74.16271484 -31.06455078 74.16271484 -31.44921875 75.28515625 C-31.63097656 75.85105469 -31.81273437 76.41695313 -32 77 C-38.3749758 76.71088545 -42.82723009 75.85422071 -48 72 C-50.90051878 68.54168915 -51.93663786 65.76034566 -52.3125 61.25 C-52 58 -52 58 -51 55 C-51.309375 54.113125 -51.61875 53.22625 -51.9375 52.3125 C-54.18930745 45.29215911 -53.13961582 39.95882519 -50.28125 33.34375 C-48.33901501 29.79088111 -46.11878576 27.57638824 -43 25 C-42.34 25 -41.68 25 -41 25 C-40.79246094 25.83402344 -40.58492187 26.66804688 -40.37109375 27.52734375 C-38.30622862 35.06971723 -35.93126805 41.64104729 -30 47 C-27.88155625 47.77123979 -27.88155625 47.77123979 -26 48 C-28.58383251 43.57736644 -31.48495467 39.45759457 -34.4765625 35.3046875 C-37.95475286 30.04280978 -37.58000821 24.09008618 -37 18 C-34.86653622 13.49602092 -32.56065568 11.01517344 -28 9 C-26.845 8.896875 -25.69 8.79375 -24.5 8.6875 C-19.86087473 7.77624325 -18.78557693 5.68900728 -16 2 C-11.20436996 -1.15141403 -5.50281372 -0.59011407 0 0 Z M-23 19 C-23 20.32 -23 21.64 -23 23 C-21.88625 23.4125 -20.7725 23.825 -19.625 24.25 C-17.33522737 25.09806394 -16.23526114 25.67774519 -14.78515625 27.6640625 C-13.70269937 30.88450636 -13.77418401 33.73229367 -13.8125 37.125 C-13.82216797 38.13022705 -13.82216797 38.13022705 -13.83203125 39.15576172 C-13.88865973 42.83749753 -14.08490616 46.46736156 -14.5 50.125 C-16.14913148 63.75460218 -16.14913148 63.75460218 -11 76 C-8.93455106 77.97424869 -8.93455106 77.97424869 -7 79 C-3.87802522 77.6910428 -3.87802522 77.6910428 -2 75 C-3.175625 74.38125 -3.175625 74.38125 -4.375 73.75 C-7.25739706 71.82840196 -7.86022025 71.18823184 -9 68 C-9.16802927 65.39412229 -9.23577238 62.91317462 -9.1875 60.3125 C-9.18105469 59.59352539 -9.17460938 58.87455078 -9.16796875 58.13378906 C-9.10491325 53.77310748 -8.79159008 49.52614349 -8.23828125 45.20703125 C-7.3766399 37.22625483 -6.83234825 29.61459424 -12 23 C-15.06704936 20.38974523 -16.85554335 19.09951797 -20.875 18.75 C-21.57625 18.8325 -22.2775 18.915 -23 19 Z M-12 136 C-13.39735818 138.15424056 -13.39735818 138.15424056 -14 141 C-12.28239171 144.07678035 -12.28239171 144.07678035 -10 147 C-9.28426473 148.64619113 -8.5974304 150.30728055 -8 152 C-6.68 152 -5.36 152 -4 152 C-4.27984378 145.42367107 -6.92360181 141.10707841 -11 136 C-11.33 136 -11.66 136 -12 136 Z M-39 138 C-38.67 139.32 -38.34 140.64 -38 142 C-37.34 142 -36.68 142 -36 142 C-36 140.35 -36 138.7 -36 137 C-37.2236068 136.9254644 -37.2236068 136.9254644 -39 138 Z " fill="#FE8C6F" transform="translate(74,9)"/>
<path d="M0 0 C2.84252836 0.18950189 3.8292959 0.81100617 5.75 2.9375 C7.52950996 7.29729941 7.24370596 11.35153438 7 16 C8.051875 16.0928125 8.051875 16.0928125 9.125 16.1875 C13.45282866 17.41058201 16.6894589 20.00569832 19.16796875 23.77734375 C20.25943361 26.69304096 20.19247227 29.14627568 20.125 32.25 C20.10695313 33.32765625 20.08890625 34.4053125 20.0703125 35.515625 C20.04710937 36.33546875 20.02390625 37.1553125 20 38 C17.65502726 36.83256745 15.32349788 35.64765515 13 34.4375 C5.2341393 30.71635841 -2.99500602 31.21565427 -11 34 C-11.33 35.32 -11.66 36.64 -12 38 C-11.43152344 37.7834375 -10.86304687 37.566875 -10.27734375 37.34375 C-1.79730485 34.28583948 4.71881588 34.38185553 13 38 C18.0364729 41.13380536 21.02286273 45.42381052 22.57421875 51.1015625 C23.56415824 57.12635554 22.6425405 62.50280873 20 68 C18.26387214 70.27120939 16.45468406 72.29649345 14.42578125 74.30859375 C12.67774185 76.01359986 12.67774185 76.01359986 13 79 C15.24071094 77.99554337 16.87754985 77.12245015 18.625 75.375 C19.07875 74.92125 19.5325 74.4675 20 74 C20.66 74 21.32 74 22 74 C24.99283509 82.97850526 23.55761996 93.03160356 19.546875 101.40234375 C16.05773555 107.26163096 11.72605463 111.61236216 5.1171875 113.6953125 C0.09654896 114.41783982 -4.25681102 113.0204033 -8.5625 110.5 C-10.87640348 106.47582004 -10.58630216 102.53506887 -10 98 C-8.67511274 94.24723882 -6.8836807 90.81258238 -5 87.3125 C-0.47270401 79.15104433 -0.47270401 79.15104433 0 70 C-1.60883643 67.11518985 -2.99367711 64.77651357 -5.625 62.74609375 C-7.74747709 60.05078904 -7.28726558 57.6712744 -7.1875 54.3125 C-7.14689453 52.54326172 -7.14689453 52.54326172 -7.10546875 50.73828125 C-7.07066406 49.83464844 -7.03585938 48.93101563 -7 48 C-8.485 48.495 -8.485 48.495 -10 49 C-9.979375 50.2375 -9.95875 51.475 -9.9375 52.75 C-9.88851401 55.68915923 -10.19071295 58.17068148 -11 61 C-12.216875 61.268125 -13.43375 61.53625 -14.6875 61.8125 C-18.21444169 62.70206611 -21.09225798 63.72832655 -24 66 C-24 66.99 -24 67.98 -24 69 C-23.50371094 68.71125 -23.00742188 68.4225 -22.49609375 68.125 C-17.85640479 65.5894584 -14.41057705 64.18330912 -9 65 C-6.0625 66.4375 -6.0625 66.4375 -4 69 C-2.8006368 73.96321847 -3.64782962 78.00515447 -6.1875 82.375 C-9.12280157 86.55759685 -12.18003945 88.39334648 -17 90 C-18.56118428 90.06740865 -20.1250252 90.08514456 -21.6875 90.0625 C-22.49574219 90.05347656 -23.30398437 90.04445313 -24.13671875 90.03515625 C-24.75160156 90.02355469 -25.36648437 90.01195312 -26 90 C-26 90.99 -26 91.98 -26 93 C-21.71 93 -17.42 93 -13 93 C-13.17789063 94.41152344 -13.17789063 94.41152344 -13.359375 95.8515625 C-14.53834298 103.53532827 -14.53834298 103.53532827 -12.375 110.6875 C-8.92417278 114.04751598 -5.76592472 116.11742135 -1 117 C-2.38801071 120.35435922 -3.88629 122.11290303 -7 124 C-7.99 124 -8.98 124 -10 124 C-10.20625 124.721875 -10.4125 125.44375 -10.625 126.1875 C-12.48134044 129.98456 -14.59467803 131.4981308 -18 134 C-23.37015634 135.79005211 -29.76234766 136.00459071 -35.203125 134.31640625 C-40.40077327 131.59329052 -43.18324024 127.45027929 -45 122 C-45.27683465 117.10925453 -44.56669411 113.59563605 -43 109 C-43.33 108.01 -43.66 107.02 -44 106 C-44.03954234 103.66700175 -44.04401732 101.33291811 -44 99 C-38.44519537 102.41275579 -33.60100783 105.48595676 -30 111 C-29.14634486 114.80861522 -29 118.09751282 -29 122 C-28.34 122 -27.68 122 -27 122 C-25.24489237 118.48978473 -25.46354534 114.83091743 -26 111 C-28.34554063 105.42791079 -33.13217449 102.19465503 -37.84765625 98.6953125 C-41.8407962 95.55008067 -45.10961632 91.76376687 -47 87 C-47.1953125 83.984375 -47.1953125 83.984375 -47.125 80.75 C-47.10695312 79.67234375 -47.08890625 78.5946875 -47.0703125 77.484375 C-47.04710937 76.66453125 -47.02390625 75.8446875 -47 75 C-46.34 74.67 -45.68 74.34 -45 74 C-44.46375 74.78375 -43.9275 75.5675 -43.375 76.375 C-40.69757158 79.33426299 -38.81566975 80.04608256 -35 81 C-35.72513673 77.85803765 -35.72513673 77.85803765 -38.3125 76.3125 C-41.7607455 73.34540504 -43.21171393 70.1160551 -45 66 C-48.45716855 69.75748824 -49.54027608 72.3208329 -50.0625 77.375 C-50.7060979 82.48319595 -51.66228246 86.4308248 -54 91 C-56.31 90.34 -58.62 89.68 -61 89 C-61.66 89.99 -62.32 90.98 -63 92 C-61.700625 92.2784375 -61.700625 92.2784375 -60.375 92.5625 C-54.74344891 94.96112361 -51.50150933 99.29633961 -49.125 104.875 C-47.06294767 111.23299468 -47.17077169 117.81211016 -49.74609375 124.0078125 C-52.78671236 128.83870188 -57.57899635 133.19299878 -63 135 C-70.75614669 135.63935804 -76.64110308 135.73220236 -83 131 C-82.70245971 123.87391001 -81.28874656 118.3327492 -78 112 C-75.6875 111.6875 -75.6875 111.6875 -73 112 C-70.65115471 115.04479945 -69.33340936 118.41005174 -68 122 C-67.34 122 -66.68 122 -66 122 C-66.32441228 117.94484655 -66.71914928 115.42127607 -69 112 C-71.41486119 108.37770822 -71.88807387 106.35168791 -72 102 C-70.89482985 99.15582293 -69.28441431 96.758072 -67.5625 94.25 C-67.10166016 93.5475415 -66.64082031 92.84508301 -66.16601562 92.12133789 C-62.94512351 87.25603112 -59.55421509 82.51814279 -56.0625 77.84375 C-53.59686377 74.44416066 -51.30106221 70.94955568 -49 67.4375 C-45.44501147 62.01851863 -41.68563653 56.90976717 -37.49609375 51.953125 C-35.80917244 49.97060302 -35.80917244 49.97060302 -35 47 C-31.7 51.95 -28.4 56.9 -25 62 C-21.17736819 53.8312769 -17.84236006 45.5717743 -14.6875 37.125 C-14.20892408 35.85302899 -13.72991474 34.58122098 -13.25048828 33.30957031 C-12.28976523 30.76008971 -11.33072706 28.20998816 -10.37353516 25.65917969 C-8.38182684 20.35314978 -6.38207104 15.0502355 -4.375 9.75 C-4.04459717 8.86973145 -3.71419434 7.98946289 -3.3737793 7.08251953 C-1.1134729 1.1134729 -1.1134729 1.1134729 0 0 Z " fill="#FD7D6C" transform="translate(135,39)"/>
<path d="M0 0 C5.47213114 3.96729508 8.25178914 7.54117498 10.5 13.8125 C10.5 14.4725 10.5 15.1325 10.5 15.8125 C11.98113281 14.92884766 11.98113281 14.92884766 13.4921875 14.02734375 C14.78621126 13.26780807 16.08049567 12.50871634 17.375 11.75 C18.02597656 11.36005859 18.67695313 10.97011719 19.34765625 10.56835938 C21.03065725 9.58805467 22.76296199 8.69351568 24.5 7.8125 C25.49 8.3075 25.49 8.3075 26.5 8.8125 C25.4121652 11.94342873 24.30200927 15.06597705 23.1875 18.1875 C22.87876953 19.07695312 22.57003906 19.96640625 22.25195312 20.8828125 C21.94580078 21.73359375 21.63964844 22.584375 21.32421875 23.4609375 C21.04666748 24.24645996 20.76911621 25.03198242 20.4831543 25.84130859 C19.5 27.8125 19.5 27.8125 16.5 29.8125 C15.29437669 32.53136699 14.25037092 35.20475047 13.25 38 C12.55596633 39.87547374 11.86052258 41.75042596 11.1640625 43.625 C10.55739746 45.26855469 10.55739746 45.26855469 9.93847656 46.9453125 C7.22826718 54.25585406 4.43790465 61.53634861 1.65002441 68.8175354 C0.63003549 71.48682223 -0.38285804 74.15873235 -1.39550781 76.83081055 C-2.03154836 78.49541475 -2.66792697 80.15988983 -3.3046875 81.82421875 C-3.59711334 82.60043579 -3.88953918 83.37665283 -4.19082642 84.1763916 C-6.27217393 89.58467393 -6.27217393 89.58467393 -8.5 91.8125 C-10.54145437 88.90977222 -12.55434807 85.98834371 -14.5625 83.0625 C-15.14322266 82.2375 -15.72394531 81.4125 -16.32226562 80.5625 C-16.86689453 79.76328125 -17.41152344 78.9640625 -17.97265625 78.140625 C-18.48062744 77.4074707 -18.98859863 76.67431641 -19.51196289 75.91894531 C-20.5 73.8125 -20.5 73.8125 -20.31323242 71.77294922 C-19.42660711 69.63557269 -18.39015786 67.97916056 -17.015625 66.1171875 C-16.4992749 65.41070068 -15.9829248 64.70421387 -15.45092773 63.97631836 C-14.88962158 63.2210083 -14.32831543 62.46569824 -13.75 61.6875 C-12.55846211 60.06129437 -11.3670596 58.43498952 -10.17578125 56.80859375 C-9.25853271 55.56311768 -9.25853271 55.56311768 -8.32275391 54.29248047 C-5.50625164 50.46043788 -2.72091693 46.60610852 0.0625 42.75 C0.59093506 42.01910156 1.11937012 41.28820313 1.66381836 40.53515625 C7.33993662 32.67285435 12.92565979 24.74714642 18.5 16.8125 C14.24690326 20.35488276 10.27532349 23.95423435 6.625 28.125 C1.3781694 34.09648028 -4.27630691 39.64281808 -9.94091797 45.21606445 C-15.6400323 50.85160841 -20.92122899 56.73055415 -26.0625 62.875 C-28.5 64.8125 -28.5 64.8125 -31.12890625 64.65625 C-35.28256707 63.61663153 -38.9892902 62.0242165 -42.875 60.25 C-43.61105469 59.92064453 -44.34710938 59.59128906 -45.10546875 59.25195312 C-46.90644557 58.44502195 -48.70362181 57.6296174 -50.5 56.8125 C-50.5 56.1525 -50.5 55.4925 -50.5 54.8125 C-48.93945312 53.69921875 -48.93945312 53.69921875 -46.78125 52.5 C-46.01425781 52.06429687 -45.24726562 51.62859375 -44.45703125 51.1796875 C-42.81901042 50.26822917 -41.18098958 49.35677083 -39.54296875 48.4453125 C-38.77597656 48.00960937 -38.00898437 47.57390625 -37.21875 47.125 C-36.50654297 46.72925781 -35.79433594 46.33351562 -35.06054688 45.92578125 C-34.54556641 45.55839844 -34.03058594 45.19101562 -33.5 44.8125 C-33.5 44.1525 -33.5 43.4925 -33.5 42.8125 C-30.26496267 40.66467851 -26.9688453 38.68306009 -23.62695312 36.70898438 C-17.67438284 33.11569766 -12.56256769 29.24389215 -9.5 22.8125 C-8.3677367 18.1965567 -8.3677367 18.1965567 -9.5 13.8125 C-10.16 13.8125 -10.82 13.8125 -11.5 13.8125 C-11.58636719 14.46476562 -11.67273438 15.11703125 -11.76171875 15.7890625 C-12.85009031 22.5589333 -14.5408975 26.80466927 -20.20703125 31.109375 C-21.39085828 31.94501761 -22.58353448 32.76827926 -23.78515625 33.578125 C-26.32071212 35.40326317 -28.36001486 37.54281879 -30.5 39.8125 C-31.41287675 36.70871905 -31.63428649 35.1719746 -30.484375 32.09375 C-29.31668506 28.20145019 -29.63620667 25.45554687 -30.125 21.4375 C-30.61128832 16.18622599 -30.75060903 12.04365482 -27.87890625 7.4609375 C-20.52274433 -1.33311443 -11.08251602 -3.76013936 0 0 Z " fill="#FE9673" transform="translate(118.5,10.1875)"/>
<path d="M0 0 C2.84252836 0.18950189 3.8292959 0.81100617 5.75 2.9375 C7.52950996 7.29729941 7.24370596 11.35153438 7 16 C8.051875 16.0928125 8.051875 16.0928125 9.125 16.1875 C13.45282866 17.41058201 16.6894589 20.00569832 19.16796875 23.77734375 C20.25943361 26.69304096 20.19247227 29.14627568 20.125 32.25 C20.10695312 33.32765625 20.08890625 34.4053125 20.0703125 35.515625 C20.04710937 36.33546875 20.02390625 37.1553125 20 38 C17.65502726 36.83256745 15.32349788 35.64765515 13 34.4375 C5.2341393 30.71635841 -2.99500602 31.21565427 -11 34 C-11.33 35.32 -11.66 36.64 -12 38 C-11.43152344 37.7834375 -10.86304687 37.566875 -10.27734375 37.34375 C-1.79730485 34.28583948 4.71881588 34.38185553 13 38 C18.0364729 41.13380536 21.02286273 45.42381052 22.57421875 51.1015625 C23.56415824 57.12635554 22.6425405 62.50280873 20 68 C18.26387214 70.27120939 16.45468406 72.29649345 14.42578125 74.30859375 C12.67774185 76.01359986 12.67774185 76.01359986 13 79 C15.24071094 77.99554337 16.87754985 77.12245015 18.625 75.375 C19.07875 74.92125 19.5325 74.4675 20 74 C20.66 74 21.32 74 22 74 C24.99283509 82.97850526 23.55761996 93.03160356 19.546875 101.40234375 C16.05773555 107.26163096 11.72605463 111.61236216 5.1171875 113.6953125 C0.09654896 114.41783982 -4.25681102 113.0204033 -8.5625 110.5 C-10.87640348 106.47582004 -10.58630216 102.53506887 -10 98 C-8.67511274 94.24723882 -6.8836807 90.81258238 -5 87.3125 C-0.47270401 79.15104433 -0.47270401 79.15104433 0 70 C-1.60883643 67.11518985 -2.99367711 64.77651357 -5.625 62.74609375 C-7.74747709 60.05078904 -7.28726558 57.6712744 -7.1875 54.3125 C-7.16042969 53.13300781 -7.13335937 51.95351562 -7.10546875 50.73828125 C-7.07066406 49.83464844 -7.03585938 48.93101563 -7 48 C-8.485 48.495 -8.485 48.495 -10 49 C-9.979375 50.2375 -9.95875 51.475 -9.9375 52.75 C-9.88851401 55.68915923 -10.19071295 58.17068148 -11 61 C-12.216875 61.28875 -13.43375 61.5775 -14.6875 61.875 C-17.22344886 62.4988883 -19.44926642 63.18556656 -21.875 64.1875 C-22.926875 64.5896875 -22.926875 64.5896875 -24 65 C-24.66 64.67 -25.32 64.34 -26 64 C-25.67 63.34 -25.34 62.68 -25 62 C-21.13146926 53.86057372 -17.83954225 45.56422995 -14.6875 37.125 C-14.20892408 35.85302899 -13.72991474 34.58122098 -13.25048828 33.30957031 C-12.28976523 30.76008971 -11.33072706 28.20998816 -10.37353516 25.65917969 C-8.38182684 20.35314978 -6.38207104 15.0502355 -4.375 9.75 C-4.04459717 8.86973145 -3.71419434 7.98946289 -3.3737793 7.08251953 C-1.1134729 1.1134729 -1.1134729 1.1134729 0 0 Z " fill="#FE8A6E" transform="translate(135,39)"/>
<path d="M0 0 C4.79426764 1.21029457 7.40103152 4.07728927 10.00390625 8.19921875 C10.98225875 9.87980335 11.90263723 11.59387032 12.8125 13.3125 C12.2548999 13.97024414 11.6972998 14.62798828 11.12280273 15.30566406 C5.5654759 21.96343424 0.61476954 28.79634664 -4.125 36.0625 C-5.51000757 38.17084172 -6.89542395 40.27891494 -8.28125 42.38671875 C-8.94511719 43.39911621 -9.60898438 44.41151367 -10.29296875 45.45458984 C-11.96644484 47.97903715 -13.67142942 50.47453832 -15.40625 52.95703125 C-16.10633179 53.96781738 -16.10633179 53.96781738 -16.82055664 54.99902344 C-17.65612036 56.20068386 -18.50087983 57.39603334 -19.35717773 58.58300781 C-22.00853754 62.43294355 -22.81936006 65.67861161 -23.1875 70.3125 C-23.8475 70.3125 -24.5075 70.3125 -25.1875 70.3125 C-25.5175 71.9625 -25.8475 73.6125 -26.1875 75.3125 C-27.5075 75.3125 -28.8275 75.3125 -30.1875 75.3125 C-32.0951604 80.69210234 -33.62300362 85.92552175 -34.5625 91.5625 C-34.76875 92.14 -34.975 92.7175 -35.1875 93.3125 C-36.6725 93.8075 -36.6725 93.8075 -38.1875 94.3125 C-38.1875 96.2925 -38.1875 98.2725 -38.1875 100.3125 C-38.8475 100.3125 -39.5075 100.3125 -40.1875 100.3125 C-40.31705078 99.28189453 -40.31705078 99.28189453 -40.44921875 98.23046875 C-40.58972656 97.32941406 -40.73023438 96.42835938 -40.875 95.5 C-41.00261719 94.60667969 -41.13023438 93.71335937 -41.26171875 92.79296875 C-41.9616084 90.07338985 -41.9616084 90.07338985 -44.70385742 89.00048828 C-47.1875 87.3125 -47.1875 87.3125 -47.83447266 84.80737305 C-47.8401123 83.82293213 -47.84575195 82.83849121 -47.8515625 81.82421875 C-47.86195557 80.73206055 -47.87234863 79.63990234 -47.88305664 78.51464844 C-47.85977295 77.35481445 -47.83648926 76.19498047 -47.8125 75 C-47.79630615 73.81825195 -47.7801123 72.63650391 -47.76342773 71.41894531 C-47.06090409 47.28401953 -30.83235905 27.94784059 -14.78515625 11.0625 C-13.14799442 9.32932417 -11.54563337 7.56193937 -9.99609375 5.75 C-4.64874742 -0.27753716 -4.64874742 -0.27753716 0 0 Z " fill="#FEF8F8" transform="translate(87.1875,75.6875)"/>
<path d="M0 0 C0.33 0 0.66 0 1 0 C1.31461385 7.09629025 1.44572039 12.68284595 -2 19 C-4.31 18.34 -6.62 17.68 -9 17 C-9.66 17.99 -10.32 18.98 -11 20 C-10.13375 20.185625 -9.2675 20.37125 -8.375 20.5625 C-2.74344891 22.96112361 0.49849067 27.29633961 2.875 32.875 C4.93705233 39.23299468 4.82922831 45.81211016 2.25390625 52.0078125 C-0.78671236 56.83870188 -5.57899635 61.19299878 -11 63 C-18.75614669 63.63935804 -24.64110308 63.73220236 -31 59 C-30.70245971 51.87391001 -29.28874656 46.3327492 -26 40 C-23.6875 39.6875 -23.6875 39.6875 -21 40 C-18.65115471 43.04479945 -17.33340936 46.41005174 -16 50 C-15.34 50 -14.68 50 -14 50 C-14.32441228 45.94484655 -14.71914928 43.42127607 -17 40 C-19.41486119 36.37770822 -19.88807387 34.35168791 -20 30 C-18.89485742 27.15589387 -17.28442542 24.75798192 -15.5625 22.25 C-15.10746094 21.55624268 -14.65242188 20.86248535 -14.18359375 20.14770508 C-10.80228545 15.03973359 -7.26061778 10.04340862 -3.59375 5.13671875 C-2.3443551 3.46167215 -1.15914673 1.7387201 0 0 Z " fill="#FD6D65" transform="translate(83,111)"/>
<path d="M0 0 C1.12710361 3.38131084 0.9480545 3.79174147 -0.36450195 6.91210938 C-0.84743965 8.08477356 -0.84743965 8.08477356 -1.34013367 9.28112793 C-1.69839737 10.12679321 -2.05666107 10.9724585 -2.42578125 11.84375 C-3.1756437 13.66338226 -3.9237983 15.48371908 -4.67041016 17.3046875 C-5.05811584 18.24602539 -5.44582153 19.18736328 -5.84527588 20.15722656 C-7.67047855 24.65062682 -9.3909277 29.18220338 -11.10546875 33.71875 C-11.44184357 34.605625 -11.77821838 35.4925 -12.12478638 36.40625 C-13.49446601 40.01956297 -14.86036412 43.63430083 -16.22631836 47.24902344 C-20.00155771 57.23221697 -23.78187134 67.19332235 -28 77 C-31.52127515 73.58790808 -34.15493475 70.09119546 -36.8125 66 C-37.23208984 65.38382812 -37.65167969 64.76765625 -38.08398438 64.1328125 C-41.06629041 59.55371988 -41.06629041 59.55371988 -40.76342773 57.02392578 C-39.9297738 54.81382309 -38.91795337 53.20431299 -37.515625 51.3046875 C-36.99943604 50.59836182 -36.48324707 49.89203613 -35.95141602 49.16430664 C-35.38994873 48.40883545 -34.82848145 47.65336426 -34.25 46.875 C-33.05579402 45.24623712 -31.86178907 43.61732683 -30.66796875 41.98828125 C-30.05614746 41.1576416 -29.44432617 40.32700195 -28.81396484 39.47119141 C-26.57177297 36.41661992 -24.3578315 33.34238561 -22.14624023 30.265625 C-14.84906206 20.11459435 -7.43453761 10.05067384 0 0 Z " fill="#FFFCFB" transform="translate(139,25)"/>
<path d="M0 0 C0.99 0.495 0.99 0.495 2 1 C1.35933594 1.6290625 0.71867187 2.258125 0.05859375 2.90625 C-1.23884766 4.19015625 -1.23884766 4.19015625 -2.5625 5.5 C-3.40941406 6.3353125 -4.25632813 7.170625 -5.12890625 8.03125 C-7.26759562 10.19317784 -9.26553055 12.44270438 -11.24609375 14.75 C-16.18257111 20.44547 -21.60431048 25.65005597 -26.97265625 30.93359375 C-32.82734975 36.73190176 -38.27701617 42.74570225 -43.5625 49.0625 C-46 51 -46 51 -48.62890625 50.84375 C-52.78256707 49.80413153 -56.4892902 48.2117165 -60.375 46.4375 C-61.11105469 46.10814453 -61.84710938 45.77878906 -62.60546875 45.43945312 C-64.40644557 44.63252195 -66.20362181 43.8171174 -68 43 C-68 42.34 -68 41.68 -68 41 C-65.85473633 39.51049805 -65.85473633 39.51049805 -62.83203125 37.76171875 C-61.16575684 36.78827515 -61.16575684 36.78827515 -59.46582031 35.79516602 C-58.57231873 35.27975754 -58.57231873 35.27975754 -57.6607666 34.75393677 C-54.54765238 32.95769186 -51.448488 31.13765007 -48.34765625 29.3203125 C-47.72216888 28.95456619 -47.09668152 28.58881989 -46.45223999 28.21199036 C-40.82925061 24.91755694 -35.27845541 21.51317455 -29.75 18.0625 C-21.55156451 12.95244665 -13.30068296 7.94190145 -5 3 C-4.0821875 2.40445312 -3.164375 1.80890625 -2.21875 1.1953125 C-1.4865625 0.80085938 -0.754375 0.40640625 0 0 Z " fill="#FEFBFB" transform="translate(136,24)"/>
<path d="M0 0 C0.66 0 1.32 0 2 0 C3.04497358 1.16965793 4.036096 2.38768092 5 3.625 C11.35453842 11.10482127 21.2566333 16.52373232 31 18 C30.68289062 19.21558594 30.36578125 20.43117187 30.0390625 21.68359375 C28.68542309 27.77497111 28.54724451 33.84375542 28.375 40.0625 C28.33632813 41.21427734 28.29765625 42.36605469 28.2578125 43.55273438 C28.16434848 46.36833796 28.07858748 49.1839486 28 52 C21.48482391 52.2021415 17.27498366 51.07623795 12.51953125 46.609375 C7.95245946 41.51996948 6.68041738 36.7112351 7 30 C9.48761414 28.75619293 10.70611902 29.07421288 13.4375 29.4375 C16.01609988 29.77310031 18.39165072 30 21 30 C20.67 29.01 20.34 28.02 20 27 C19.27554687 26.90203125 18.55109375 26.8040625 17.8046875 26.703125 C10.56226292 25.58296333 6.14967813 23.89429882 0.6875 18.875 C-2.37919651 13.65025779 -2.56095361 8.16902061 -1.0625 2.375 C-0.711875 1.59125 -0.36125 0.8075 0 0 Z M23 37 C23.33 38.32 23.66 39.64 24 41 C24.66 41 25.32 41 26 41 C26 39.35 26 37.7 26 36 C24.7763932 35.9254644 24.7763932 35.9254644 23 37 Z " fill="#FD7E6F" transform="translate(12,110)"/>
<path d="M0 0 C0 0.99 0 1.98 0 3 C-0.33 3.33 -0.66 3.66 -1 4 C-0.90460938 4.66386719 -0.80921875 5.32773438 -0.7109375 6.01171875 C-0.08537925 10.99436297 -0.34933531 13.99714066 -3.12890625 18.28125 C-4.53303328 20.03640879 -5.98538274 21.74380885 -7.44140625 23.45605469 C-21.69424168 40.29948839 -27.40319875 60.27509883 -29 82 C-30.98 81.01 -32.96 80.02 -35 79 C-36.16428083 47.23841909 -25.97065481 28.10092098 -4.875 5.1875 C-3.25854313 3.44987588 -1.63255768 1.72256562 0 0 Z " fill="#FEFBFB" transform="translate(75,84)"/>
<path d="M0 0 C0.66 0 1.32 0 2 0 C0.43983082 4.78999308 -2.26831323 8.26175635 -5.3125 12.1875 C-6.4024874 13.61608559 -7.4909751 15.0458164 -8.578125 16.4765625 C-9.14208984 17.2180957 -9.70605469 17.95962891 -10.28710938 18.72363281 C-13.659176 23.20498247 -16.919784 27.76715075 -20.18359375 32.32763672 C-22.83152584 36.02143787 -25.50522599 39.68610036 -28.265625 43.296875 C-28.77923584 43.97484131 -29.29284668 44.65280762 -29.82202148 45.35131836 C-30.78825374 46.62269325 -31.76381782 47.8870508 -32.75024414 49.14282227 C-34.75544374 51.79546758 -35.9566228 53.56796312 -36.29296875 56.91796875 C-36.19628906 57.60503906 -36.09960938 58.29210937 -36 59 C-40 55 -40 55 -41.75 52.8125 C-44.28644501 50.76925263 -46.49679036 49.80410433 -49.76171875 49.484375 C-54.66945814 50.61495371 -57.87601553 55.29026844 -61 59 C-61.33 58.34 -61.66 57.68 -62 57 C-62.78375 56.855625 -63.5675 56.71125 -64.375 56.5625 C-67.42956024 55.90795138 -68.1969498 55.51600414 -70 53 C-70.43359375 49.75 -70.43359375 49.75 -70.4375 46 C-70.45683594 44.7625 -70.47617188 43.525 -70.49609375 42.25 C-70 39 -70 39 -67.97265625 37.0625 C-67.32167969 36.711875 -66.67070313 36.36125 -66 36 C-65.34 36.33 -64.68 36.66 -64 37 C-65.485 37.495 -65.485 37.495 -67 38 C-67 38.66 -67 39.32 -67 40 C-66.46632813 40.17015625 -65.93265625 40.3403125 -65.3828125 40.515625 C-60.20990597 42.19816207 -55.23374553 44.11833532 -50.26171875 46.328125 C-47.5947143 47.12039575 -46.54137908 47.10996992 -44 46 C-41.80391686 44.20600522 -41.80391686 44.20600522 -39.6875 41.9375 C-38.61048828 40.83728516 -38.61048828 40.83728516 -37.51171875 39.71484375 C-35.55810107 37.60323522 -33.67444837 35.46592835 -31.80078125 33.28515625 C-26.84084446 27.58526928 -21.40916044 22.36320214 -16.02734375 17.06640625 C-11.63681294 12.71815984 -7.40500237 8.31241636 -3.39257812 3.61132812 C-2.31259868 2.36170254 -1.16788691 1.16788691 0 0 Z " fill="#FD7766" transform="translate(135,27)"/>
<path d="M0 0 C-1.55948962 3.82783815 -4.11094313 6.11094313 -7 9 C-7 9.66 -7 10.32 -7 11 C-4.53673288 12.6446674 -4.53673288 12.6446674 -2 14 C-1.67 13.34 -1.34 12.68 -1 12 C-1.66 12 -2.32 12 -3 12 C-3 11.34 -3 10.68 -3 10 C-3.66 10 -4.32 10 -5 10 C-3.50902342 6.2047869 -1.24299151 4.38957269 2 2 C4.00390625 3.1953125 4.00390625 3.1953125 6 5 C6.53783944 9.46937001 5.49629891 13.83369755 3.75 17.9375 C1.64911963 20.41353758 -0.03645431 21.65293378 -3 23 C-4.670625 23.0928125 -4.670625 23.0928125 -6.375 23.1875 C-11.78270612 24.39957206 -13.7876315 27.67842803 -17 32 C-17.55429688 32.7115625 -18.10859375 33.423125 -18.6796875 34.15625 C-27.69465784 46.28699349 -33.88702766 59.22628042 -37 74 C-37.22300781 74.89074219 -37.44601563 75.78148437 -37.67578125 76.69921875 C-39.27414694 83.45149831 -39.1949475 90.09019403 -39 97 C-39.66 97 -40.32 97 -41 97 C-46.17746408 80.84130161 -40.14001874 60.57330839 -33 46 C-29.0480775 38.40588477 -24.68770998 31.6150123 -18.9375 25.25 C-15.58612491 21.38524731 -14.51049347 19.25728279 -14.75 14.125 C-14.82734375 13.21878906 -14.9046875 12.31257813 -14.984375 11.37890625 C-15 9 -15 9 -13 6.0625 C-4.18181818 0 -4.18181818 0 0 0 Z " fill="#FD7566" transform="translate(88,79)"/>
<path d="M0 0 C2.81042113 0.29073322 3.83347282 0.81563062 5.75 2.9375 C7.52950996 7.29729941 7.24370596 11.35153438 7 16 C8.051875 16.0928125 8.051875 16.0928125 9.125 16.1875 C13.45282866 17.41058201 16.6894589 20.00569832 19.16796875 23.77734375 C20.25943361 26.69304096 20.19247227 29.14627568 20.125 32.25 C20.10695312 33.32765625 20.08890625 34.4053125 20.0703125 35.515625 C20.04710937 36.33546875 20.02390625 37.1553125 20 38 C17.65502726 36.83256745 15.32349788 35.64765515 13 34.4375 C5.06266635 30.63419429 -3.51513266 31.74298262 -12 33 C-10.67655693 26.19667547 -8.64485441 20.0840229 -6 13.6875 C-5.64421875 12.80771484 -5.2884375 11.92792969 -4.921875 11.02148438 C-3.39758972 7.27617893 -1.8456998 3.60003339 0 0 Z " fill="#FD7B6A" transform="translate(135,39)"/>
<path d="M0 0 C4.04968637 0.90605823 6.25450457 3.05627119 8.875 6.25 C8.545 7.24 8.215 8.23 7.875 9.25 C6.885 9.25 5.895 9.25 4.875 9.25 C4.875 8.26 4.875 7.27 4.875 6.25 C2.49551228 6.42625835 1.17274151 6.94719773 -0.50390625 8.65234375 C-1.74615486 10.15649092 -2.93876056 11.70129851 -4.125 13.25 C-3.465 13.25 -2.805 13.25 -2.125 13.25 C-2.125 13.91 -2.125 14.57 -2.125 15.25 C-0.805 14.59 0.515 13.93 1.875 13.25 C0.125 17.125 0.125 17.125 -2.125 18.25 C-2.125 17.59 -2.125 16.93 -2.125 16.25 C-4.6 15.26 -4.6 15.26 -7.125 14.25 C-5.76129701 11.25779732 -4.17591917 8.95973471 -2 6.5 C-1.46117188 5.88640625 -0.92234375 5.2728125 -0.3671875 4.640625 C0.24769531 3.95226562 0.24769531 3.95226562 0.875 3.25 C-0.17300781 3.80880859 -0.17300781 3.80880859 -1.2421875 4.37890625 C-2.15226562 4.85199219 -3.06234375 5.32507813 -4 5.8125 C-5.35738281 6.52599609 -5.35738281 6.52599609 -6.7421875 7.25390625 C-7.52851562 7.58261719 -8.31484375 7.91132812 -9.125 8.25 C-9.785 7.92 -10.445 7.59 -11.125 7.25 C-5.01246962 -0.40976463 -5.01246962 -0.40976463 0 0 Z " fill="#EEC3B9" transform="translate(87.125,75.75)"/>
<path d="M0 0 C0.66 0.33 1.32 0.66 2 1 C-0.31 7.27 -2.62 13.54 -5 20 C-5.99 20 -6.98 20 -8 20 C-7.71125 19.30132812 -7.4225 18.60265625 -7.125 17.8828125 C-6.568125 16.51769531 -6.568125 16.51769531 -6 15.125 C-5.443125 13.76761719 -5.443125 13.76761719 -4.875 12.3828125 C-3.88509774 10.11016142 -3.88509774 10.11016142 -4 8 C-4.66 8.66 -5.32 9.32 -6 10 C-6.33 9.01 -6.66 8.02 -7 7 C-8.1446875 7.7425 -8.1446875 7.7425 -9.3125 8.5 C-12 10 -12 10 -15 10 C-14.67 8.68 -14.34 7.36 -14 6 C-14 6.66 -14 7.32 -14 8 C-13.01257813 7.41089844 -12.02515625 6.82179688 -11.0078125 6.21484375 C-9.71378874 5.45530807 -8.41950433 4.69621634 -7.125 3.9375 C-6.47402344 3.54755859 -5.82304687 3.15761719 -5.15234375 2.75585938 C-3.46934275 1.77555467 -1.73703801 0.88101568 0 0 Z " fill="#FEBDA1" transform="translate(143,18)"/>
<path d="M0 0 C3 1 3 1 5 3 C5.125 5.625 5.125 5.625 5 8 C4.34 7.67 3.68 7.34 3 7 C1.31503702 7.96885372 -0.35178756 8.96986723 -2 10 C-2.66 10 -3.32 10 -4 10 C-4 9.34 -4 8.68 -4 8 C-4.66 8 -5.32 8 -6 8 C-4.55746343 4.63408134 -2.66735273 2.48952921 0 0 Z " fill="#FB9174" transform="translate(89,81)"/>
<path d="M0 0 C0.66 0.33 1.32 0.66 2 1 C2 1.66 2 2.32 2 3 C0.34765625 4.23681641 0.34765625 4.23681641 -1.9375 5.6015625 C-2.74960938 6.09140625 -3.56171875 6.58125 -4.3984375 7.0859375 C-5.25695312 7.59382813 -6.11546875 8.10171875 -7 8.625 C-8.28777344 9.3984375 -8.28777344 9.3984375 -9.6015625 10.1875 C-11.73056234 11.4648999 -13.86341196 12.73534697 -16 14 C-16.66 13.34 -17.32 12.68 -18 12 C-17.52578613 11.70754395 -17.05157227 11.41508789 -16.56298828 11.11376953 C-14.4152283 9.78701067 -12.27009676 8.45606004 -10.125 7.125 C-9.00544922 6.43470703 -9.00544922 6.43470703 -7.86328125 5.73046875 C-7.14785156 5.28574219 -6.43242188 4.84101562 -5.6953125 4.3828125 C-5.03547363 3.97434082 -4.37563477 3.56586914 -3.69580078 3.14501953 C-1.85045821 1.97734934 -1.85045821 1.97734934 0 0 Z " fill="#FEADA2" transform="translate(103,41)"/>
<path d="M0 0 C0.33 0 0.66 0 1 0 C1 1.98 1 3.96 1 6 C1.66 6 2.32 6 3 6 C3 10.95 3 15.9 3 21 C2.34 21 1.68 21 1 21 C0.21311555 18.22276075 -0.11949924 15.77389923 -0.09765625 12.890625 C-0.09443359 12.13652344 -0.09121094 11.38242188 -0.08789062 10.60546875 C-0.07951172 9.82816406 -0.07113281 9.05085937 -0.0625 8.25 C-0.05798828 7.45722656 -0.05347656 6.66445312 -0.04882812 5.84765625 C-0.03708565 3.89840492 -0.01915146 1.94919262 0 0 Z " fill="#FEA98F" transform="translate(46,155)"/>
<path d="M0 0 C1.0209375 0.2165625 1.0209375 0.2165625 2.0625 0.4375 C2.0625 1.4275 2.0625 2.4175 2.0625 3.4375 C0.44257835 4.30125896 -1.18361861 5.15325854 -2.8125 6 C-4.16988281 6.71349609 -4.16988281 6.71349609 -5.5546875 7.44140625 C-6.34101562 7.77011719 -7.12734375 8.09882812 -7.9375 8.4375 C-8.5975 8.1075 -9.2575 7.7775 -9.9375 7.4375 C-3.86310175 0.57535558 -3.86310175 0.57535558 0 0 Z " fill="#FEE4E2" transform="translate(85.9375,75.5625)"/>
<path d="M0 0 C2.375 0.6875 2.375 0.6875 5 2 C6.3125 4.625 6.3125 4.625 7 7 C5.68 7.33 4.36 7.66 3 8 C3 7.01 3 6.02 3 5 C1.68 4.67 0.36 4.34 -1 4 C-0.67 2.68 -0.34 1.36 0 0 Z " fill="#B9C3F2" transform="translate(89,77)"/>
<path d="M0 0 C-0.97057132 3.26464899 -1.59111681 4.71692702 -4.4375 6.6875 C-5.283125 7.120625 -6.12875 7.55375 -7 8 C-7.99 8.66 -8.98 9.32 -10 10 C-8.50006099 6.10015857 -4.53875449 0 0 0 Z " fill="#FE9979" transform="translate(137,27)"/>
<path d="M0 0 C0.66 0.66 1.32 1.32 2 2 C0.56705502 2.84114171 -0.87154405 3.67265687 -2.3125 4.5 C-3.51326172 5.19609375 -3.51326172 5.19609375 -4.73828125 5.90625 C-7 7 -7 7 -10 7 C-9.67 5.68 -9.34 4.36 -9 3 C-9 3.66 -9 4.32 -9 5 C-6.03 3.35 -3.06 1.7 0 0 Z " fill="#FEC4AE" transform="translate(138,21)"/>
<path d="M0 0 C0.66 0.66 1.32 1.32 2 2 C1.01 3.32 0.02 4.64 -1 6 C-0.34 6.33 0.32 6.66 1 7 C-1.375 8.5625 -1.375 8.5625 -4 10 C-4.66 9.67 -5.32 9.34 -6 9 C-4.02 6.03 -2.04 3.06 0 0 Z " fill="#FD9991" transform="translate(73,125)"/>
<path d="M0 0 C1.32 1.32 2.64 2.64 4 4 C2.35 5.32 0.7 6.64 -1 8 C-1.66 7.34 -2.32 6.68 -3 6 C-2.505 5.38125 -2.01 4.7625 -1.5 4.125 C0.19222773 2.16119096 0.19222773 2.16119096 0 0 Z " fill="#FE8772" transform="translate(99,86)"/>
<path d="M0 0 C0.66 0.33 1.32 0.66 2 1 C-0.31 3.31 -2.62 5.62 -5 8 C-5.33 7.34 -5.66 6.68 -6 6 C-2.25 1.125 -2.25 1.125 0 0 Z " fill="#FEBA9F" transform="translate(44,19)"/>
<path d="M0 0 C2.1875 0.3125 2.1875 0.3125 4 1 C2.75 2.5625 2.75 2.5625 1 4 C-1.1875 3.6875 -1.1875 3.6875 -3 3 C-1.75 1.4375 -1.75 1.4375 0 0 Z " fill="#FBF8F9" transform="translate(85,76)"/>
</svg>
